# xmcd
#
# Track frame offsets:
#	150
#	27907
#	51940
#	67540
#	93927
#	113847
#	135745
#	155860
#	174320
#	213742
#	236247
#	253945
#	291530
#
# Disc length: 4274 seconds
#
# Revision: 1
# Processed by: cddbd v1.5.1PL0 Copyright (c) Steve Scherf et al.
# Submitted via: CDex 1.50Beta5
#
DISCID=c310b00d
DTITLE=13CATS - サーティーン・ソングス
DYEAR=1996
DGENRE=Rock
TTITLE0=プロメナード
TTITLE1=アイ・オン・ザ・スカイ
TTITLE2=バック・オン・トラック
TTITLE3=ウォッチング・ザ・リバー・フロー
TTITLE4=インサイド・アウト
TTITLE5=アイ・ウォント・トゥ・ノウ
TTITLE6=ノー・アマウント・オブ・タイム
TTITLE7=ダウン・ザ・ロード
TTITLE8=ギャラクシー
TTITLE9=サンク・ユー
TTITLE10=ディージェイ〜スピリット・ディジジョン
TTITLE11=イブ・ユー・リアリー・ラブ・ミー〜ザ・リバー
TTITLE12=グッド・ルッキング
EXTD=
EXTT0=
EXTT1=
EXTT2=
EXTT3=
EXTT4=
EXTT5=
EXTT6=
EXTT7=
EXTT8=
EXTT9=
EXTT10=
EXTT11=
EXTT12=
PLAYORDER=
